<?xml version="1.0" encoding="UTF-8" standalone="no"?>
<!DOCTYPE svg PUBLIC "-//W3C//DTD SVG 1.1//EN" "http://www.w3.org/Graphics/SVG/1.1/DTD/svg11.dtd">
<svg width="100%" height="100%" viewBox="0 0 1024 512" version="1.1" xmlns="http://www.w3.org/2000/svg" xmlns:xlink="http://www.w3.org/1999/xlink" xml:space="preserve" xmlns:serif="http://www.serif.com/" style="fill-rule:evenodd;clip-rule:evenodd;stroke-linejoin:round;stroke-miterlimit:2;">
    <g transform="matrix(1.92808,0,0,1.92808,-259.266,-267.57)">
        <g transform="matrix(0.962926,0,0,0.0862193,243.049,308.366)">
            <path d="M235.689,334.292L235.689,682.242C235.689,778.261 228.709,856.217 220.111,856.217L188.956,856.217C180.359,856.217 173.379,778.261 173.379,682.242L173.379,334.292C173.379,238.272 180.359,160.317 188.956,160.317L220.111,160.317C228.709,160.317 235.689,238.272 235.689,334.292Z" style="fill:rgb(255,108,0);"/>
        </g>
        <g transform="matrix(0.962926,0,0,0.0862193,403.084,147.078)">
            <path d="M235.689,334.292L235.689,682.242C235.689,778.261 228.709,856.217 220.111,856.217L188.956,856.217C180.359,856.217 173.379,778.261 173.379,682.242L173.379,334.292C173.379,238.272 180.359,160.317 188.956,160.317L220.111,160.317C228.709,160.317 235.689,238.272 235.689,334.292Z" style="fill:rgb(255,108,0);"/>
        </g>
        <g transform="matrix(0.962926,0,0,0.201178,403.084,209.948)">
            <path d="M235.689,234.878L235.689,781.656C235.689,822.807 228.709,856.217 220.111,856.217L188.956,856.217C180.359,856.217 173.379,822.807 173.379,781.656L173.379,234.878C173.379,193.726 180.359,160.317 188.956,160.317L220.111,160.317C228.709,160.317 235.689,193.726 235.689,234.878Z"/>
        </g>
        <g transform="matrix(0.962926,0,0,0.201178,243.084,129.948)">
            <path d="M235.689,234.878L235.689,781.656C235.689,822.807 228.709,856.217 220.111,856.217L188.956,856.217C180.359,856.217 173.379,822.807 173.379,781.656L173.379,234.878C173.379,193.726 180.359,160.317 188.956,160.317L220.111,160.317C228.709,160.317 235.689,193.726 235.689,234.878Z"/>
        </g>
        <g transform="matrix(2.24683,0,0,0.0862193,100.448,308.366)">
            <path d="M235.689,334.292L235.689,682.242C235.689,778.261 232.697,856.217 229.013,856.217L180.055,856.217C176.37,856.217 173.379,778.261 173.379,682.242L173.379,334.292C173.379,238.272 176.37,160.317 180.055,160.317L229.013,160.317C232.697,160.317 235.689,238.272 235.689,334.292Z"/>
        </g>
        <g transform="matrix(3.53073,0,0,0.0862193,-202.153,228.366)">
            <path d="M235.689,334.292L235.689,682.242C235.689,778.261 233.785,856.217 231.44,856.217L177.627,856.217C175.282,856.217 173.379,778.261 173.379,682.242L173.379,334.292C173.379,238.272 175.282,160.317 177.627,160.317L231.44,160.317C233.785,160.317 235.689,238.272 235.689,334.292Z"/>
        </g>
        <g transform="matrix(2.24683,0,0,0.0862193,20.4483,148.366)">
            <path d="M235.689,334.292L235.689,682.242C235.689,778.261 232.697,856.217 229.013,856.217L180.055,856.217C176.37,856.217 173.379,778.261 173.379,682.242L173.379,334.292C173.379,238.272 176.37,160.317 180.055,160.317L229.013,160.317C232.697,160.317 235.689,238.272 235.689,334.292Z"/>
        </g>
    </g>
    <g transform="matrix(1.92808,0,0,1.92808,-259.266,-267.57)">
        <g transform="matrix(0.962926,0,0,0.0862193,163.049,308.378)">
            <path d="M235.689,334.292L235.689,682.242C235.689,778.261 228.709,856.217 220.111,856.217L188.956,856.217C180.359,856.217 173.379,778.261 173.379,682.242L173.379,334.292C173.379,238.272 180.359,160.317 188.956,160.317L220.111,160.317C228.709,160.317 235.689,238.272 235.689,334.292Z" style="fill:rgb(109,0,255);"/>
        </g>
        <g transform="matrix(0.962926,0,0,0.0862193,83.0493,308.378)">
            <path d="M235.689,334.292L235.689,682.242C235.689,778.261 228.709,856.217 220.111,856.217L188.956,856.217C180.359,856.217 173.379,778.261 173.379,682.242L173.379,334.292C173.379,238.272 180.359,160.317 188.956,160.317L220.111,160.317C228.709,160.317 235.689,238.272 235.689,334.292Z" style="fill:rgb(109,0,255);"/>
        </g>
        <g transform="matrix(0.962926,0,0,0.0862193,3.04926,308.378)">
            <path d="M235.689,334.292L235.689,682.242C235.689,778.261 228.709,856.217 220.111,856.217L188.956,856.217C180.359,856.217 173.379,778.261 173.379,682.242L173.379,334.292C173.379,238.272 180.359,160.317 188.956,160.317L220.111,160.317C228.709,160.317 235.689,238.272 235.689,334.292Z" style="fill:rgb(109,0,255);"/>
        </g>
        <g transform="matrix(3.53073,0,0,0.0862193,-442.153,147.078)">
            <path d="M235.689,334.292L235.689,682.242C235.689,778.261 233.785,856.217 231.44,856.217L177.627,856.217C175.282,856.217 173.379,778.261 173.379,682.242L173.379,334.292C173.379,238.272 175.282,160.317 177.627,160.317L231.44,160.317C233.785,160.317 235.689,238.272 235.689,334.292Z"/>
        </g>
        <g transform="matrix(0.962926,0,0,0.201178,163.049,128.669)">
            <path d="M235.689,234.878L235.689,781.656C235.689,822.807 228.709,856.217 220.111,856.217L188.956,856.217C180.359,856.217 173.379,822.807 173.379,781.656L173.379,234.878C173.379,193.726 180.359,160.317 188.956,160.317L220.111,160.317C228.709,160.317 235.689,193.726 235.689,234.878Z"/>
        </g>
        <g transform="matrix(0.962926,0,0,0.201178,83.0493,128.685)">
            <path d="M235.689,234.878L235.689,781.656C235.689,822.807 228.709,856.217 220.111,856.217L188.956,856.217C180.359,856.217 173.379,822.807 173.379,781.656L173.379,234.878C173.379,193.726 180.359,160.317 188.956,160.317L220.111,160.317C228.709,160.317 235.689,193.726 235.689,234.878Z"/>
        </g>
        <g transform="matrix(0.962926,0,0,0.201178,3.04926,128.669)">
            <path d="M235.689,234.878L235.689,781.656C235.689,822.807 228.709,856.217 220.111,856.217L188.956,856.217C180.359,856.217 173.379,822.807 173.379,781.656L173.379,234.878C173.379,193.726 180.359,160.317 188.956,160.317L220.111,160.317C228.709,160.317 235.689,193.726 235.689,234.878Z"/>
        </g>
    </g>
</svg>
